<svg xmlns="http://www.w3.org/2000/svg" width="35" height="50" fill="none" viewBox="0 0 35 50">
  <path fill="#737373" fill-opacity=".21" d="M28.872 4.36c-1.024-.832-2.688-1.536-4.992-2.112-2.24-.576-3.936-.864-5.088-.864h-2.016c-3.456.064-5.952.96-7.488 2.688-1.536 1.664-2.304 3.552-2.304 5.664 0 2.112.672 3.904 2.016 5.376 1.344 1.408 3.008 2.528 4.992 3.36 2.048.768 4.224 1.664 6.528 2.688a77.88 77.88 0 0 1 6.528 3.168c2.048 1.024 3.744 2.56 5.088 4.608 1.344 1.984 2.016 4.48 2.016 7.488s-1.056 5.568-3.168 7.68-4.48 3.52-7.104 4.224c-2.56.704-5.344 1.056-8.352 1.056-6.528 0-11.424-1.44-14.688-4.32l.576-.576c1.28 1.216 3.168 2.208 5.664 2.976 2.56.768 5.024 1.152 7.392 1.152 3.776 0 6.88-1.024 9.312-3.072 2.496-2.112 3.744-4.704 3.744-7.776 0-3.136-.928-5.632-2.784-7.488-1.856-1.92-4.128-3.392-6.816-4.416a294.878 294.878 0 0 0-7.968-3.168C7.272 21.608 5 20.136 3.144 18.28 1.288 16.36.36 14.152.36 11.656c0-2.496.576-4.512 1.728-6.048 1.152-1.6 2.688-2.72 4.608-3.36C9.96 1.16 13.224.616 16.488.616c5.504 0 9.792 1.024 12.864 3.072l-.48.672Z"/>
</svg>
